<svg xmlns="http://www.w3.org/2000/svg" viewBox="0 0 44.88 40.62">
<path d="M36.33,40.62h-28a3,3,0,0,1-3-3v-16H2A2,2,0,0,1,.69,18.11L21,.47a2.06,2.06,0,0,1,2.71.08l5.64,5.52V3.62a2,2,0,0,1,2-2h5a2,2,0,0,1,2,2v8.76l5.94,5.81a2,2,0,0,1-1.39,3.43H39.33v16A3,3,0,0,1,36.33,40.62Zm-30-21a1,1,0,0,1,1,1v17a1,1,0,0,0,1,1h28a1,1,0,0,0,1-1v-17a1,1,0,0,1,1-1h4.55l-6.25-6.11a1,1,0,0,1-.3-.71V3.62h-5V8.45a1,1,0,0,1-.61.92,1,1,0,0,1-1.09-.21L22.29,2,2,19.62ZM22.44,12.22a9,9,0,0,0-9,9v10a3,3,0,0,0,3,3h12a3,3,0,0,0,3-3v-10A9,9,0,0,0,22.44,12.22Zm7,19a1,1,0,0,1-1,1h-12a1,1,0,0,1-1-1v-8h14Zm-14-10a7,7,0,0,1,14,0ZM22.44,29.22a1,1,0,0,0,1-1v-2a1,1,0,0,0-2,0v2A1,1,0,0,0,22.44,29.22Z"/>
</svg>